# xmcd
#
# Track frame offsets:
#	150
#	10053
#	22539
#	42656
#	53458
#	65550
#	78261
#	97923
#	124174
#	142787
#	158544
#	169174
#	182879
#	192547
#	215449
#	227504
#
# Disc length: 3373
#
# Revision: 1
# Processed by: cddbd v1.5.1PL0 Copyright (c) Steve Scherf et al.
# Submitted via: VisiTrax 2.9.9.209 - For more info visit www.synapsa.com
# Normalized: r0:DSETVAR1
#
DISCID=c20d2b10
DTITLE=Various Artist - Best of the Blues 2cd set CD1
DYEAR=2004
DGENRE=Blues
TTITLE0=John Lee Hooker - Dimples
TTITLE1=Jimmy Reed - Honest I Do
TTITLE2=Muddy Waters - Baby don't go
TTITLE3=Junior Parker - Mystery Train
TTITLE4=Ottis Rush - All Your Love
TTITLE5=Elmore James - The Sky is Crying
TTITLE6=Albert King - Cadillac assembly Line
TTITLE7=John Mayall - Ridin' on the L and N
TTITLE8=Robert Cray - The Score
TTITLE9=Sonny Terry and Brownie McGhee - Walk On
TTITLE10=Lighnin Hopkins - Coffee House Blues
TTITLE11=T-Bone Walker - Call it stormy Monday (but Tuesday's just as bad)
TTITLE12=Eric Clapton and Jimmy Page - Tribute to Elmore
TTITLE13=Lonnie Brooks - Trading Post
TTITLE14=Robert Johnson - Cross Road Blues
TTITLE15=Junior Wells - I got my Mojo working
EXTD=
EXTT0=
EXTT1=
EXTT2=
EXTT3=
EXTT4=
EXTT5=
EXTT6=
EXTT7=
EXTT8=
EXTT9=
EXTT10=
EXTT11=
EXTT12=
EXTT13=
EXTT14=
EXTT15=
PLAYORDER=
